<svg id="Layer_1" data-name="Layer 1" xmlns="http://www.w3.org/2000/svg" viewBox="0 0 1080 1080"><defs><style>.cls-1,.cls-2{fill:#ebd9d1;}.cls-2{font-size:644.86px;font-family:RetiroStd-Regular24pt, Retiro Std;}.cls-3{letter-spacing:-0.08em;}</style></defs><path class="cls-1" d="M648.43,674.63c-8.76,13.87-26.27,27.73-59.84,27.73S533.13,687,529.48,660.77H528c-19,29.92-46,41.59-86.1,41.59-59.84,0-94.87-32.1-94.87-78.08,0-44.51,30.65-64.94,66.41-78.81,32.83-12.4,75.89-24.81,113.83-33.56V445.5c0-52.54-24.08-61.3-53.27-61.3-21.16,0-29.19,7.3-37.21,19l-60.57,87.56h-8l10.22-94.86c28.46-9.49,68.59-18.24,99.24-18.24,54.73,0,124.79,24.08,124.79,104.35V668.07c0,11.67,2.91,21.16,14.59,21.16,10.22,0,19.7-7.3,26.27-18.24ZM527.29,519.2c-53.27,10.95-94.86,27.73-97.78,83.92-.73,15.33-.73,38,.73,52.54,1.46,16.78,7.3,34.3,36.49,34.3,33.56,0,60.56-30.65,60.56-51.81Z"/><path class="cls-1" d="M702.4,688c-17,0-30.54-12.52-30.54-30s13.52-30,30.54-30c16.53,0,30.55,12.52,30.55,30S718.93,688,702.4,688Z"/><text class="cls-2" transform="translate(693.95 -187.66)">a<tspan class="cls-3" x="285.67" y="0">.</tspan></text></svg>